<svg width="72" height="70" viewBox="0 0 72 70" fill="none" xmlns="http://www.w3.org/2000/svg">
<path d="M71.532 18.9153C71.325 18.6212 71.0503 18.3812 70.7311 18.2154C70.4119 18.0497 70.0576 17.963 69.698 17.9628H21.7874L18.1608 5.45633C16.7386 0.531637 13.359 0 11.973 0H2.30303C1.0636 0 0.0612793 1.00345 0.0612793 2.24168C0.0612793 3.47991 1.06473 4.48329 2.30296 4.48329H11.9718C12.2776 4.48329 13.2111 4.48329 13.8478 6.68321L26.3238 52.5338C26.5947 53.5011 27.4762 54.1693 28.4818 54.1693H58.9556C59.9015 54.1693 60.7458 53.5767 61.0653 52.6861L71.8064 20.9628C72.0536 20.2754 71.9509 19.5101 71.5321 18.9153H71.532ZM57.378 49.6872H30.1834L23.0475 22.4473H66.5107L57.378 49.6872ZM52.932 58.7126C49.8144 58.7126 47.2883 61.2387 47.2883 64.3563C47.2883 67.4739 49.8144 70 52.932 70C56.0496 70 58.5757 67.4739 58.5757 64.3563C58.5757 61.2387 56.0496 58.7126 52.932 58.7126ZM32.6147 58.7126C29.4971 58.7126 26.971 61.2387 26.971 64.3563C26.971 67.4739 29.4971 70 32.6147 70C35.7322 70 38.2584 67.4739 38.2584 64.3563C38.2584 61.2387 35.7322 58.7126 32.6147 58.7126Z" fill="white"/>
</svg>
