<svg width="25" height="25" viewBox="0 0 25 25" fill="none" xmlns="http://www.w3.org/2000/svg">
<g clip-path="url(#clip0_296_6177)">
<path d="M3.125 3.125L21.875 21.875" stroke="#CACACA" stroke-width="5" stroke-linecap="round" stroke-linejoin="round"/>
<path fill-rule="evenodd" clip-rule="evenodd" d="M5.62508 6.48994C5.16675 6.83369 4.74696 7.1962 4.36467 7.56494C3.08776 8.80474 2.03072 10.2524 1.23862 11.8462C1.13959 12.0499 1.08813 12.2734 1.08813 12.4998C1.08813 12.7263 1.13959 12.9498 1.23862 13.1535C2.0303 14.7476 3.087 16.1956 4.36362 17.4358C6.18758 19.191 8.873 20.8337 12.5001 20.8337C14.8292 20.8337 16.7709 20.1566 18.3438 19.2066L14.2355 15.0993C13.6344 15.5009 12.9126 15.6816 12.1932 15.6107C11.4738 15.5397 10.8012 15.2216 10.29 14.7104C9.77884 14.1993 9.4607 13.5267 9.38979 12.8073C9.31888 12.0878 9.49959 11.3661 9.90112 10.7649L5.62612 6.4889L5.62508 6.48994ZM21.5272 16.4983C22.4123 15.4842 23.1633 14.3604 23.7615 13.1545C23.8606 12.9509 23.912 12.7274 23.912 12.5009C23.912 12.2744 23.8606 12.0509 23.7615 11.8472C22.9699 10.2531 21.9132 8.80511 20.6365 7.56494C18.8126 5.80974 16.1282 4.16703 12.5001 4.16703C11.5127 4.16453 10.5293 4.29165 9.57508 4.54515L21.5272 16.4983Z" fill="#CACACA"/>
</g>
<defs>
<clipPath id="clip0_296_6177">
<rect width="25" height="25" fill="white"/>
</clipPath>
</defs>
</svg>
