<svg width="25" height="25" viewBox="0 0 25 25" fill="none" xmlns="http://www.w3.org/2000/svg">
<path d="M12.5001 9.375C11.6713 9.375 10.8764 9.70424 10.2904 10.2903C9.70432 10.8763 9.37508 11.6712 9.37508 12.5C9.37508 13.3288 9.70432 14.1237 10.2904 14.7097C10.8764 15.2958 11.6713 15.625 12.5001 15.625C13.3289 15.625 14.1237 15.2958 14.7098 14.7097C15.2958 14.1237 15.6251 13.3288 15.6251 12.5C15.6251 11.6712 15.2958 10.8763 14.7098 10.2903C14.1237 9.70424 13.3289 9.375 12.5001 9.375ZM12.5001 17.7083C11.1187 17.7083 9.79399 17.1596 8.81723 16.1828C7.84048 15.2061 7.29175 13.8813 7.29175 12.5C7.29175 11.1187 7.84048 9.7939 8.81723 8.81715C9.79399 7.8404 11.1187 7.29167 12.5001 7.29167C13.8814 7.29167 15.2062 7.8404 16.1829 8.81715C17.1597 9.7939 17.7084 11.1187 17.7084 12.5C17.7084 13.8813 17.1597 15.2061 16.1829 16.1828C15.2062 17.1596 13.8814 17.7083 12.5001 17.7083ZM12.5001 4.6875C7.29175 4.6875 2.84383 7.92708 1.04175 12.5C2.84383 17.0729 7.29175 20.3125 12.5001 20.3125C17.7084 20.3125 22.1563 17.0729 23.9584 12.5C22.1563 7.92708 17.7084 4.6875 12.5001 4.6875Z" fill="#CACACA"/>
</svg>
