<svg width="21" height="20" viewBox="0 0 21 20" fill="none" xmlns="http://www.w3.org/2000/svg">
<path d="M10.0941 0.847332L6.69947 6.50467H15.0115L11.6155 0.847332L12.7621 0.161999L16.5661 6.50467H19.9181C20.4355 6.50467 20.8555 6.92467 20.8555 7.442V8.02733C20.8555 11.9523 19.9416 15.8234 18.1861 19.334C18.1104 19.4855 17.9939 19.6129 17.8497 19.7019C17.7056 19.7909 17.5395 19.8381 17.3701 19.838H4.3408C4.17129 19.8378 4.00519 19.7904 3.86107 19.7012C3.71696 19.6119 3.60052 19.4843 3.5248 19.3327C1.76935 15.8221 0.855437 11.951 0.855469 8.026L0.855469 7.442C0.855469 6.92467 1.27547 6.50467 1.7928 6.50467H5.1448L8.9488 0.161999L10.0941 0.847332Z" fill="#BB1FD4"/>
</svg>
